<svg width="400" height="400" viewBox="0 0 400 400" fill="none" xmlns="http://www.w3.org/2000/svg">
  <!-- Iznik Floral Linework Pattern - Subtle Outline -->
  <defs>
    <pattern id="iznikFloral" patternUnits="userSpaceOnUse" width="90" height="90">
      <!-- Central floral motif -->
      <path d="M45 15 Q35 25 25 35 Q35 45 45 35 Q55 45 65 35 Q55 25 45 15 Z" 
            stroke="currentColor" 
            stroke-width="0.4" 
            fill="none" 
            opacity="0.1"/>
      
      <!-- Flowing vine-like connections -->
      <path d="M45 35 Q30 50 15 65 Q30 70 45 55 Q60 70 75 65 Q60 50 45 35" 
            stroke="currentColor" 
            stroke-width="0.3" 
            fill="none" 
            opacity="0.08"/>
      
      <!-- Small leaf details -->
      <path d="M20 20 Q15 25 20 30 Q25 25 20 20 M70 20 Q75 25 70 30 Q65 25 70 20" 
            stroke="currentColor" 
            stroke-width="0.2" 
            fill="none" 
            opacity="0.07"/>
      <path d="M20 60 Q15 65 20 70 Q25 65 20 60 M70 60 Q75 65 70 70 Q65 65 70 60" 
            stroke="currentColor" 
            stroke-width="0.2" 
            fill="none" 
            opacity="0.07"/>
      
      <!-- Border elements -->
      <path d="M0 45 Q15 40 30 45 Q15 50 0 45 M90 45 Q75 40 60 45 Q75 50 90 45" 
            stroke="currentColor" 
            stroke-width="0.2" 
            fill="none" 
            opacity="0.06"/>
    </pattern>
  </defs>
  
  <rect width="100%" height="100%" fill="url(#iznikFloral)"/>
</svg>