<svg width="400" height="400" viewBox="0 0 400 400" fill="none" xmlns="http://www.w3.org/2000/svg">
  <!-- Square Kufic Weave Pattern - Subtle Outline -->
  <defs>
    <pattern id="kuficWeave" patternUnits="userSpaceOnUse" width="60" height="60">
      <!-- Interlocking squares -->
      <rect x="10" y="10" width="15" height="15" stroke="currentColor" stroke-width="0.4" fill="none" opacity="0.1"/>
      <rect x="35" y="10" width="15" height="15" stroke="currentColor" stroke-width="0.4" fill="none" opacity="0.1"/>
      <rect x="10" y="35" width="15" height="15" stroke="currentColor" stroke-width="0.4" fill="none" opacity="0.1"/>
      <rect x="35" y="35" width="15" height="15" stroke="currentColor" stroke-width="0.4" fill="none" opacity="0.1"/>
      
      <!-- Connecting lines creating weave effect -->
      <path d="M25 10 L25 25 L35 25 M10 25 L25 25 M25 35 L25 50 L35 50 M10 50 L25 50" 
            stroke="currentColor" 
            stroke-width="0.3" 
            opacity="0.08"/>
      <path d="M35 25 L50 25 L50 35 L35 35 M50 10 L50 25 M50 35 L50 50" 
            stroke="currentColor" 
            stroke-width="0.3" 
            opacity="0.08"/>
      
      <!-- Corner dots -->
      <circle cx="0" cy="0" r="1" fill="currentColor" opacity="0.06"/>
      <circle cx="60" cy="0" r="1" fill="currentColor" opacity="0.06"/>
      <circle cx="0" cy="60" r="1" fill="currentColor" opacity="0.06"/>
      <circle cx="60" cy="60" r="1" fill="currentColor" opacity="0.06"/>
    </pattern>
  </defs>
  
  <rect width="100%" height="100%" fill="url(#kuficWeave)"/>
</svg>