<svg width="400" height="400" viewBox="0 0 400 400" fill="none" xmlns="http://www.w3.org/2000/svg">
  <!-- Mamluk Star Rosette Pattern - Subtle Outline -->
  <defs>
    <pattern id="mamlukStars" patternUnits="userSpaceOnUse" width="100" height="100">
      <!-- Eight-pointed star -->
      <path d="M50 10 L55 35 L80 30 L60 50 L85 55 L60 70 L80 70 L55 65 L50 90 L45 65 L20 70 L40 50 L15 45 L40 30 L20 30 L45 35 Z" 
            stroke="currentColor" 
            stroke-width="0.4" 
            fill="none" 
            opacity="0.12"/>
      
      <!-- Interlacing bands -->
      <path d="M25 25 Q50 10 75 25 Q90 50 75 75 Q50 90 25 75 Q10 50 25 25 Z" 
            stroke="currentColor" 
            stroke-width="0.3" 
            fill="none" 
            opacity="0.08"/>
      
      <!-- Small connecting elements -->
      <path d="M0 50 L15 50 M100 50 L85 50 M50 0 L50 15 M50 100 L50 85" 
            stroke="currentColor" 
            stroke-width="0.2" 
            opacity="0.06"/>
    </pattern>
  </defs>
  
  <rect width="100%" height="100%" fill="url(#mamlukStars)"/>
</svg>